<svg xmlns="http://www.w3.org/2000/svg" version="1.1" xmlns:xlink="http://www.w3.org/1999/xlink" xmlns:svgjs="http://svgjs.dev/svgjs" width="100%" height="100%" viewBox="0 0 1000 600"><rect width="1000" height="600" x="0" y="0" fill="#99f443"/><g><circle r="166.66666666666666" cx="431.00715128580725" cy="352.418312010508" fill="#E" transform="matrix(0.7643885507434438,0,0,0.7643885507434438,-18.15593189042727,30.615496300323315)"/><path d="M261.79109452916794 352.4323124334021L261.79109452916794 352.4323124334021Q261.79109452916794 364.54219795256665 262.7722195133596 373.3723228102907Q263.78137663995653 382.17441552560945 265.407240899474 388.3414868548135Q267.0331051589915 394.5085581840177 269.2476444090239 398.29289740875663Q271.46218365905634 402.105268775901 273.81688362111606 404.20767945631155Q276.19961572558134 406.33812227912745 278.61037997245205 407.0669579816698Q281.02114421932276 407.7957936842121 283.1796191845442 407.7957936842121L283.1796191845442 407.7957936842121Q285.6464477162259 407.7957936842121 287.60869768460896 407.1790865512917Q289.59897979539767 406.53434727596584 291.16877977010415 405.6933830038016Q292.73857974481064 404.8524187316374 293.77576901381315 404.20767945631155Q294.81295828281566 403.5629401809856 295.4016332733306 403.5629401809856L295.4016332733306 403.5629401809856Q296.18653326068386 403.5629401809856 296.7752082511988 404.4599687379608L296.7752082511988 404.4599687379608L301.0080617544253 411.159650772869Q301.31641532088554 411.74832576338383 301.31641532088554 412.1407757570605L301.31641532088554 412.1407757570605Q301.31641532088554 412.64535432035905 300.92396532720886 412.98174002922474Q300.5315153335323 413.31812573809043 300.22316176707204 413.62647930455057L300.22316176707204 413.62647930455057Q297.1676582448755 415.9811792666104 292.45825832075593 418.448007798292Q287.72082625423093 420.9148363299737 281.6658834946486 422.87708629835686Q275.58290859266094 424.86736840914546 268.2945515672378 426.1288148173917Q261.0061945418147 427.4182933680436 252.93293752903836 427.4182933680436L252.93293752903836 427.4182933680436Q245.53245193399337 427.4182933680436 237.79558063008272 425.9886541053644Q230.05870932617205 424.5590148426852 222.77035230074895 421.16712561162296Q215.48199527532586 417.7752363805606 209.034602522067 412.1407757570605Q202.5591776264026 406.53434727596584 197.73764913266118 398.2088009815402Q192.91612063891975 389.8832546871146 190.11290639837242 378.5863012977088Q187.2816600154196 367.3173800507085 187.2816600154196 352.4323124334021L187.2816600154196 352.4323124334021Q187.2816600154196 337.5472448160957 190.11290639837242 326.25029142668996Q192.91612063891975 314.9813701796895 197.73764913266118 306.65582388526394Q202.5591776264026 298.33027759083836 209.034602522067 292.69581696733815Q215.48199527532586 287.0893884862435 222.77035230074895 283.69749925518124Q230.05870932617205 280.27757788171346 237.79558063008272 278.84793861903427Q245.53245193399337 277.41829935635513 252.93293752903836 277.41829935635513L252.93293752903836 277.41829935635513Q261.0061945418147 277.41829935635513 268.2945515672378 278.7077779070069Q275.58290859266094 279.9972564576587 281.6658834946486 281.95950642604186Q287.72082625423093 283.92175639442496 292.45825832075593 286.38858492610666Q297.1676582448755 288.8554134577883 300.22316176707204 291.2381455622535L300.22316176707204 291.2381455622535Q300.5315153335323 291.5184669863083 300.92396532720886 291.854852695174Q301.31641532088554 292.21927054644516 301.31641532088554 292.69581696733815L301.31641532088554 292.69581696733815Q301.31641532088554 293.0882669610148 301.0080617544253 293.6769419515297L301.0080617544253 293.6769419515297L296.7752082511988 300.3766239864379Q296.18653326068386 301.27365254341305 295.4016332733306 301.27365254341305L295.4016332733306 301.27365254341305Q294.81295828281566 301.27365254341305 293.77576901381315 300.62891326808716Q292.73857974481064 299.98417399276127 291.16877977010415 299.17124186300254Q289.59897979539767 298.33027759083836 287.60869768460896 297.6855383155124Q285.6464477162259 297.0407990401866 283.1796191845442 297.0407990401866L283.1796191845442 297.0407990401866Q281.02114421932276 297.0407990401866 278.61037997245205 297.76963474272884Q276.19961572558134 298.52650258767665 273.81688362111606 300.62891326808716Q271.46218365905634 302.7593560909031 269.2476444090239 306.543695315642Q267.0331051589915 310.35606668278643 265.407240899474 316.49510586958513Q263.78137663995653 322.6621771987893 262.7722195133596 331.4923020565134Q261.79109452916794 340.2943947718321 261.79109452916794 352.4323124334021ZM313.34220441283367 409.8701722222172L313.34220441283367 295.86344905915666Q313.34220441283367 292.41549554328344 313.9308794033485 289.8365384419799Q314.5195543938635 287.2856134830818 316.20148293819193 285.54762065394243Q317.8834114825203 283.83765996720854 320.8267864350951 282.94063141023344Q323.7981935300752 282.07163499566377 328.50759345419476 282.07163499566377L328.50759345419476 282.07163499566377L372.4619927459771 282.07163499566377Q378.18054979669364 282.07163499566377 381.1799890340793 283.7255313975867Q384.2074604138704 285.4074599419151 385.4408746797112 287.9303527584077Q386.6742889455521 290.42521343249484 386.75838537276854 293.25645981544767Q386.8705139423904 296.05967405599495 386.8705139423904 298.4143740180548L386.8705139423904 298.4143740180548L386.8705139423904 410.0663972190555Q393.654292404515 409.08527223486385 399.4849780248535 408.3003722475106L399.4849780248535 408.3003722475106Q401.92377441412964 408.0200508234559 404.4466672306223 407.6556329721848Q406.9695600471149 407.3192472633191 409.07197072752535 407.01089369685883Q411.20241355034136 406.7305722728041 412.8843420946698 406.5904115607767Q414.5382384965926 406.42221870634387 415.3511706263514 406.42221870634387L415.3511706263514 406.42221870634387Q417.0050670282744 406.42221870634387 418.0422562972768 407.0669579816698Q419.07944556627933 407.71169725699576 419.07944556627933 409.6739472253788L419.07944556627933 409.6739472253788L419.07944556627933 418.75636136475225Q419.07944556627933 420.522386336297 417.56570987638383 422.06415416859807Q416.0239420440828 423.5778898584937 412.6881170978314 423.5778898584937L412.6881170978314 423.5778898584937L328.3113684573565 423.5778898584937Q323.68606496045334 423.5778898584937 320.7707221502841 422.68086130151846Q317.8834114825203 421.8118648869488 316.20148293819193 420.12993634262045Q314.5195543938635 418.448007798292 313.9308794033485 415.897082839394Q313.34220441283367 413.31812573809043 313.34220441283367 409.8701722222172L313.34220441283367 409.8701722222172ZM522.966565320964 297.0407990401866L522.966565320964 297.0407990401866Q520.780058213337 297.0407990401866 518.3692939664663 297.7416026003234Q515.9585297195956 298.4143740180548 513.6038297575358 300.3766239864379Q511.2210976530706 302.3669060972265 509.0065584030382 305.87092389791064Q506.79201915300575 309.34690955618936 505.1661548934883 315.06546660690594Q503.5402906339708 320.7840236576226 502.5591656497793 328.9133449552098Q501.57804066558776 337.0426662527972 501.57804066558776 348.28355535739206L501.57804066558776 348.28355535739206Q501.57804066558776 359.412315892365 502.5591656497793 367.70983004438506Q503.5402906339708 375.9793120539997 505.1661548934883 381.89409410155463Q506.79201915300575 387.80887614910955 509.0065584030382 391.59321537384847Q511.2210976530706 395.4055867409928 513.6038297575358 397.56406170621426Q515.9585297195956 399.7225366714358 518.3692939664663 400.56350094359993Q520.780058213337 401.40446521576416 522.966565320964 401.40446521576416L522.966565320964 401.40446521576416Q525.9099402735387 401.40446521576416 528.4888973748423 400.1149866651124L528.4888973748423 400.1149866651124L528.4888973748423 362.3837229873452Q528.4888973748423 360.8139230126386 529.1616687925734 359.27215518033756Q529.8624723527103 357.75841949044207 532.4133973116086 357.75841949044207L532.4133973116086 357.75841949044207L542.757257859228 357.75841949044207Q543.6542864162034 357.75841949044207 544.5513149731785 357.8425159176585Q545.4203113877481 357.95464448728035 546.121114947885 358.37512662336246Q546.7938863656163 358.82364090185 547.2143685016983 359.7767337436361Q547.6068184953751 360.70179444301675 547.6068184953751 362.3837229873452L547.6068184953751 362.3837229873452L547.6068184953751 418.95258636159053Q547.6068184953751 420.634514905919 547.2143685016983 421.55957560529953Q546.7938863656163 422.4846363046802 546.121114947885 422.93315058316784Q545.4203113877481 423.3816648616554 544.5513149731785 423.4657612888718Q543.6542864162034 423.5778898584937 542.757257859228 423.5778898584937L542.757257859228 423.5778898584937L532.4133973116086 423.5778898584937Q531.1239187609567 423.5778898584937 530.3950830584145 423.185439864817Q529.6662473558722 422.79298987114043 529.2177330773845 422.0921863110036Q528.7692187988969 421.41941489327223 528.6290580868695 420.578450621108Q528.4888973748423 419.7374863489438 528.4888973748423 418.95258636159053L528.4888973748423 418.95258636159053L528.4888973748423 416.09330783623227Q525.3212652830236 418.3639113710756 521.4808617734739 420.41025776667516Q517.640458263924 422.4846363046802 513.0431869094264 424.0824684217922Q508.4739476973342 425.6522683964987 503.14784064029413 426.52126481106836Q497.8217335832543 427.4182933680436 491.7107265388611 427.4182933680436L491.7107265388611 427.4182933680436Q484.53449808305993 427.4182933680436 476.93778749117655 426.1288148173917Q469.3410768992933 424.86736840914546 462.19288058589757 421.55957560529953Q455.04468427250185 418.2517828014537 448.65335580405383 412.5332257507371Q442.2339951932005 406.81466870002055 437.46853098426993 398.04060812710736Q432.67503463293406 389.2945796965996 429.87182039238667 377.01650132300233Q427.0686061518393 364.73842294940494 427.0686061518393 348.28355535739206L427.0686061518393 348.28355535739206Q427.0686061518393 334.2955162970608 429.87182039238667 323.58723789816986Q432.67503463293406 312.9069916416845 437.5245952690809 305.02995962574647Q442.34612376282234 297.124895467403 448.79351651608124 291.8268205527685Q455.24090926934014 286.5007134957285 462.5572984371687 283.30504926150456Q469.8456554625918 280.0813528848751 477.5825267665025 278.7638421918179Q485.31939807041306 277.41829935635513 492.6918515230526 277.41829935635513L492.6918515230526 277.41829935635513Q500.7931406782344 277.41829935635513 508.08149770365753 278.7077779070069Q515.3698547290807 279.9972564576587 521.424797488663 281.95950642604186Q527.4797402482452 283.92175639442496 532.2171723147701 286.38858492610666Q536.9546043812952 288.8554134577883 540.0101079034919 291.2381455622535L540.0101079034919 291.2381455622535Q540.2904293275465 291.5184669863083 540.6828793212233 291.854852695174Q541.1033614573053 292.21927054644516 541.1033614573053 292.69581696733815L541.1033614573053 292.69581696733815Q541.1033614573053 293.0882669610148 540.795007890845 293.6769419515297L540.795007890845 293.6769419515297L536.5621543876184 300.3766239864379Q535.9734793971036 301.27365254341305 535.1885794097504 301.27365254341305L535.1885794097504 301.27365254341305Q534.5999044192354 301.27365254341305 533.5627151502329 300.62891326808716Q532.5255258812304 299.98417399276127 530.9276937641184 299.17124186300254Q529.357893789412 298.33027759083836 527.3956438210287 297.6855383155124Q525.4333938526456 297.0407990401866 522.966565320964 297.0407990401866ZM635.2072635124796 352.4323124334021L635.2072635124796 352.4323124334021Q635.2072635124796 364.54219795256665 636.1883884966712 373.3723228102907Q637.1695134808626 382.17441552560945 638.7953777403802 388.3414868548135Q640.4212419998976 394.5085581840177 642.63578124993 398.29289740875663Q644.8783526423679 402.105268775901 647.2330526044277 404.20767945631155Q649.5877525664873 406.33812227912745 651.998516813358 407.0669579816698Q654.4373132026342 407.7957936842121 656.5957881678557 407.7957936842121L656.5957881678557 407.7957936842121Q659.0626166995373 407.7957936842121 661.0248666679206 407.1790865512917Q662.9871166363037 406.53434727596584 664.5849487534158 405.6933830038016Q666.1547487281223 404.8524187316374 667.1919379971248 404.20767945631155Q668.2291272661273 403.5629401809856 668.8178022566422 403.5629401809856L668.8178022566422 403.5629401809856Q669.6027022439953 403.5629401809856 670.1913772345104 404.4599687379608L670.1913772345104 404.4599687379608L674.4242307377367 411.159650772869Q674.7325843041972 411.74832576338383 674.7325843041972 412.1407757570605L674.7325843041972 412.1407757570605Q674.7325843041972 412.64535432035905 674.3401343105204 412.98174002922474Q673.9476843168438 413.31812573809043 673.6393307503836 413.62647930455057L673.6393307503836 413.62647930455057Q670.5838272281869 415.9811792666104 665.846395161662 418.448007798292Q661.1369952375424 420.9148363299737 655.0540203355547 422.87708629835686Q648.9990775759725 424.86736840914546 641.7107205505495 426.1288148173917Q634.4223635251262 427.4182933680436 626.3491065123499 427.4182933680436L626.3491065123499 427.4182933680436Q618.9486209173049 427.4182933680436 611.2117496133942 425.9886541053644Q603.4748783094838 424.5590148426852 596.1865212840605 421.16712561162296Q588.8981642586375 417.7752363805606 582.4227393629731 412.1407757570605Q575.9753466097143 406.53434727596584 571.1538181159729 398.2088009815402Q566.3322896222314 389.8832546871146 563.5010432392785 378.5863012977088Q560.6978289987312 367.3173800507085 560.6978289987312 352.4323124334021L560.6978289987312 352.4323124334021Q560.6978289987312 337.5472448160957 563.5010432392785 326.25029142668996Q566.3322896222314 314.9813701796895 571.1538181159729 306.65582388526394Q575.9753466097143 298.33027759083836 582.4227393629731 292.69581696733815Q588.8981642586375 287.0893884862435 596.1865212840605 283.69749925518124Q603.4748783094838 280.27757788171346 611.2117496133942 278.84793861903427Q618.9486209173049 277.41829935635513 626.3491065123499 277.41829935635513L626.3491065123499 277.41829935635513Q634.4223635251262 277.41829935635513 641.7107205505495 278.7077779070069Q648.9990775759725 279.9972564576587 655.0540203355547 281.95950642604186Q661.1369952375424 283.92175639442496 665.846395161662 286.38858492610666Q670.5838272281869 288.8554134577883 673.6393307503836 291.2381455622535L673.6393307503836 291.2381455622535Q673.9476843168438 291.5184669863083 674.3401343105204 291.854852695174Q674.7325843041972 292.21927054644516 674.7325843041972 292.69581696733815L674.7325843041972 292.69581696733815Q674.7325843041972 293.0882669610148 674.4242307377367 293.6769419515297L674.4242307377367 293.6769419515297L670.1913772345104 300.3766239864379Q669.6027022439953 301.27365254341305 668.8178022566422 301.27365254341305L668.8178022566422 301.27365254341305Q668.2291272661273 301.27365254341305 667.1919379971248 300.62891326808716Q666.1547487281223 299.98417399276127 664.5849487534158 299.17124186300254Q662.9871166363037 298.33027759083836 661.0248666679206 297.6855383155124Q659.0626166995373 297.0407990401866 656.5957881678557 297.0407990401866L656.5957881678557 297.0407990401866Q654.4373132026342 297.0407990401866 651.998516813358 297.76963474272884Q649.5877525664873 298.52650258767665 647.2330526044277 300.62891326808716Q644.8783526423679 302.7593560909031 642.63578124993 306.543695315642Q640.4212419998976 310.35606668278643 638.7953777403802 316.49510586958513Q637.1695134808626 322.6621771987893 636.1883884966712 331.4923020565134Q635.2072635124796 340.2943947718321 635.2072635124796 352.4323124334021Z " fill="#99f443" transform="matrix(0.7643885507434438,0,0,0.7643885507434438,-18.15593189042727,30.615496300323315)"/><path d="M755.5165431375663 352.4323124334021L755.5165431375663 352.4323124334021Q755.5165431375663 364.54219795256665 756.4976681217578 373.3723228102907Q757.5068252483549 382.17441552560945 759.1326895078723 388.3414868548135Q760.7585537673898 394.5085581840177 762.9730930174222 398.29289740875663Q765.1876322674545 402.105268775901 767.5423322295143 404.20767945631155Q769.9250643339795 406.33812227912745 772.3358285808503 407.0669579816698Q774.746592827721 407.7957936842121 776.9050677929424 407.7957936842121L776.9050677929424 407.7957936842121Q779.3718963246241 407.7957936842121 781.3341462930073 407.1790865512917Q783.3244284037959 406.53434727596584 784.8942283785024 405.6933830038016Q786.464028353209 404.8524187316374 787.5012176222115 404.20767945631155Q788.538406891214 403.5629401809856 789.1270818817288 403.5629401809856L789.1270818817288 403.5629401809856Q789.9119818690822 403.5629401809856 790.500656859597 404.4599687379608L790.500656859597 404.4599687379608L794.7335103628236 411.159650772869Q795.0418639292837 411.74832576338383 795.0418639292837 412.1407757570605L795.0418639292837 412.1407757570605Q795.0418639292837 412.64535432035905 794.6494139356072 412.98174002922474Q794.2569639419305 413.31812573809043 793.9486103754703 413.62647930455057L793.9486103754703 413.62647930455057Q790.8931068532737 415.9811792666104 786.1837069291541 418.448007798292Q781.4462748626291 420.9148363299737 775.3913321030469 422.87708629835686Q769.3083572010592 424.86736840914546 762.020000175636 426.1288148173917Q754.731643150213 427.4182933680436 746.6583861374367 427.4182933680436L746.6583861374367 427.4182933680436Q739.2579005423917 427.4182933680436 731.521029238481 425.9886541053644Q723.7841579345703 424.5590148426852 716.4958009091473 421.16712561162296Q709.2074438837241 417.7752363805606 702.7600511304653 412.1407757570605Q696.2846262348008 406.53434727596584 691.4630977410594 398.2088009815402Q686.641569247318 389.8832546871146 683.8383550067707 378.5863012977088Q681.0071086238179 367.3173800507085 681.0071086238179 352.4323124334021L681.0071086238179 352.4323124334021Q681.0071086238179 337.5472448160957 683.8383550067707 326.25029142668996Q686.641569247318 314.9813701796895 691.4630977410594 306.65582388526394Q696.2846262348008 298.33027759083836 702.7600511304653 292.69581696733815Q709.2074438837241 287.0893884862435 716.4958009091473 283.69749925518124Q723.7841579345703 280.27757788171346 731.521029238481 278.84793861903427Q739.2579005423917 277.41829935635513 746.6583861374367 277.41829935635513L746.6583861374367 277.41829935635513Q754.731643150213 277.41829935635513 762.020000175636 278.7077779070069Q769.3083572010592 279.9972564576587 775.3913321030469 281.95950642604186Q781.4462748626291 283.92175639442496 786.1837069291541 286.38858492610666Q790.8931068532737 288.8554134577883 793.9486103754703 291.2381455622535L793.9486103754703 291.2381455622535Q794.2569639419305 291.5184669863083 794.6494139356072 291.854852695174Q795.0418639292837 292.21927054644516 795.0418639292837 292.69581696733815L795.0418639292837 292.69581696733815Q795.0418639292837 293.0882669610148 794.7335103628236 293.6769419515297L794.7335103628236 293.6769419515297L790.500656859597 300.3766239864379Q789.9119818690822 301.27365254341305 789.1270818817288 301.27365254341305L789.1270818817288 301.27365254341305Q788.538406891214 301.27365254341305 787.5012176222115 300.62891326808716Q786.464028353209 299.98417399276127 784.8942283785024 299.17124186300254Q783.3244284037959 298.33027759083836 781.3341462930073 297.6855383155124Q779.3718963246241 297.0407990401866 776.9050677929424 297.0407990401866L776.9050677929424 297.0407990401866Q774.746592827721 297.0407990401866 772.3358285808503 297.76963474272884Q769.9250643339795 298.52650258767665 767.5423322295143 300.62891326808716Q765.1876322674545 302.7593560909031 762.9730930174222 306.543695315642Q760.7585537673898 310.35606668278643 759.1326895078723 316.49510586958513Q757.5068252483549 322.6621771987893 756.4976681217578 331.4923020565134Q755.5165431375663 340.2943947718321 755.5165431375663 352.4323124334021ZM807.0676530212319 409.8701722222172L807.0676530212319 295.86344905915666Q807.0676530212319 292.41549554328344 807.6563280117468 289.8365384419799Q808.2450030022618 287.2856134830818 809.9269315465901 285.54762065394243Q811.6088600909186 283.83765996720854 814.5522350434933 282.94063141023344Q817.5236421384734 282.07163499566377 822.233042062593 282.07163499566377L822.233042062593 282.07163499566377L866.1874413543753 282.07163499566377Q871.9059984050919 282.07163499566377 874.9054376424775 283.7255313975867Q877.9329090222687 285.4074599419151 879.1663232881095 287.9303527584077Q880.3997375539503 290.42521343249484 880.4838339811668 293.25645981544767Q880.5959625507887 296.05967405599495 880.5959625507887 298.4143740180548L880.5959625507887 298.4143740180548L880.5959625507887 410.0663972190555Q887.3797410129132 409.08527223486385 893.2104266332517 408.3003722475106L893.2104266332517 408.3003722475106Q895.6492230225278 408.0200508234559 898.1721158390205 407.6556329721848Q900.6950086555131 407.3192472633191 902.7974193359237 407.01089369685883Q904.9278621587396 406.7305722728041 906.609790703068 406.5904115607767Q908.2636871049909 406.42221870634387 909.0766192347496 406.42221870634387L909.0766192347496 406.42221870634387Q910.7305156366726 406.42221870634387 911.7677049056751 407.0669579816698Q912.8048941746777 407.71169725699576 912.8048941746777 409.6739472253788L912.8048941746777 409.6739472253788L912.8048941746777 418.75636136475225Q912.8048941746777 420.522386336297 911.291158484782 422.06415416859807Q909.749390652481 423.5778898584937 906.4135657062297 423.5778898584937L906.4135657062297 423.5778898584937L822.0368170657547 423.5778898584937Q817.4115135688515 423.5778898584937 814.4961707586823 422.68086130151846Q811.6088600909186 421.8118648869488 809.9269315465901 420.12993634262045Q808.2450030022618 418.448007798292 807.6563280117468 415.897082839394Q807.0676530212319 413.31812573809043 807.0676530212319 409.8701722222172L807.0676530212319 409.8701722222172ZM1016.6920139293622 297.0407990401866L1016.6920139293622 297.0407990401866Q1014.5055068217353 297.0407990401866 1012.0947425748645 297.7416026003234Q1009.6839783279938 298.4143740180548 1007.329278365934 300.3766239864379Q1004.9465462614688 302.3669060972265 1002.7320070114364 305.87092389791064Q1000.517467761404 309.34690955618936 998.8916035018865 315.06546660690594Q997.265739242369 320.7840236576226 996.2846142581775 328.9133449552098Q995.303489273986 337.0426662527972 995.303489273986 348.28355535739206L995.303489273986 348.28355535739206Q995.303489273986 359.412315892365 996.2846142581775 367.70983004438506Q997.265739242369 375.9793120539997 998.8916035018865 381.89409410155463Q1000.517467761404 387.80887614910955 1002.7320070114364 391.59321537384847Q1004.9465462614688 395.4055867409928 1007.329278365934 397.56406170621426Q1009.6839783279938 399.7225366714358 1012.0947425748645 400.56350094359993Q1014.5055068217353 401.40446521576416 1016.6920139293622 401.40446521576416L1016.6920139293622 401.40446521576416Q1019.6353888819369 401.40446521576416 1022.2143459832405 400.1149866651124L1022.2143459832405 400.1149866651124L1022.2143459832405 362.3837229873452Q1022.2143459832405 360.8139230126386 1022.8871174009718 359.27215518033756Q1023.5879209611086 357.75841949044207 1026.138845920007 357.75841949044207L1026.138845920007 357.75841949044207L1036.4827064676265 357.75841949044207Q1037.3797350246018 357.75841949044207 1038.2767635815767 357.8425159176585Q1039.1457599961464 357.95464448728035 1039.8465635562834 358.37512662336246Q1040.5193349740148 358.82364090185 1040.9398171100966 359.7767337436361Q1041.3322671037736 360.70179444301675 1041.3322671037736 362.3837229873452L1041.3322671037736 362.3837229873452L1041.3322671037736 418.95258636159053Q1041.3322671037736 420.634514905919 1040.9398171100966 421.55957560529953Q1040.5193349740148 422.4846363046802 1039.8465635562834 422.93315058316784Q1039.1457599961464 423.3816648616554 1038.2767635815767 423.4657612888718Q1037.3797350246018 423.5778898584937 1036.4827064676265 423.5778898584937L1036.4827064676265 423.5778898584937L1026.138845920007 423.5778898584937Q1024.8493673693552 423.5778898584937 1024.120531666813 423.185439864817Q1023.3916959642704 422.79298987114043 1022.9431816857827 422.0921863110036Q1022.4946674072951 421.41941489327223 1022.3545066952678 420.578450621108Q1022.2143459832405 419.7374863489438 1022.2143459832405 418.95258636159053L1022.2143459832405 418.95258636159053L1022.2143459832405 416.09330783623227Q1019.046713891422 418.3639113710756 1015.2063103818721 420.41025776667516Q1011.3659068723222 422.4846363046802 1006.7686355178246 424.0824684217922Q1002.1993963057324 425.6522683964987 996.8732892486923 426.52126481106836Q991.5471821916525 427.4182933680436 985.4361751472593 427.4182933680436L985.4361751472593 427.4182933680436Q978.2599466914581 427.4182933680436 970.6632360995748 426.1288148173917Q963.0665255076915 424.86736840914546 955.9183291942958 421.55957560529953Q948.7701328809001 418.2517828014537 942.3788044124522 412.5332257507371Q935.9594438015987 406.81466870002055 931.1939795926683 398.04060812710736Q926.4004832413323 389.2945796965996 923.5972690007849 377.01650132300233Q920.7940547602376 364.73842294940494 920.7940547602376 348.28355535739206L920.7940547602376 348.28355535739206Q920.7940547602376 334.2955162970608 923.5972690007849 323.58723789816986Q926.4004832413323 312.9069916416845 931.2500438774791 305.02995962574647Q936.0715723712206 297.124895467403 942.5189651244796 291.8268205527685Q948.9663578777383 286.5007134957285 956.282747045567 283.30504926150456Q963.57110407099 280.0813528848751 971.3079753749007 278.7638421918179Q979.0448466788114 277.41829935635513 986.4173001314509 277.41829935635513L986.4173001314509 277.41829935635513Q994.5185892866327 277.41829935635513 1001.8069463120557 278.7077779070069Q1009.0953033374789 279.9972564576587 1015.1502460970612 281.95950642604186Q1021.2051888566434 283.92175639442496 1025.9426209231683 286.38858492610666Q1030.6800529896936 288.8554134577883 1033.73555651189 291.2381455622535L1033.73555651189 291.2381455622535Q1034.015877935945 291.5184669863083 1034.4083279296215 291.854852695174Q1034.8288100657037 292.21927054644516 1034.8288100657037 292.69581696733815L1034.8288100657037 292.69581696733815Q1034.8288100657037 293.0882669610148 1034.5204564992432 293.6769419515297L1034.5204564992432 293.6769419515297L1030.2876029960166 300.3766239864379Q1029.6989280055018 301.27365254341305 1028.9140280181487 301.27365254341305L1028.9140280181487 301.27365254341305Q1028.3253530276338 301.27365254341305 1027.288163758631 300.62891326808716Q1026.2509744896288 299.98417399276127 1024.6531423725169 299.17124186300254Q1023.0833423978102 298.33027759083836 1021.121092429427 297.6855383155124Q1019.1588424610438 297.0407990401866 1016.6920139293622 297.0407990401866ZM1128.932712120878 352.4323124334021L1128.932712120878 352.4323124334021Q1128.932712120878 364.54219795256665 1129.9138371050694 373.3723228102907Q1130.8949620892608 382.17441552560945 1132.5208263487784 388.3414868548135Q1134.146690608296 394.5085581840177 1136.3612298583284 398.29289740875663Q1138.603801250766 402.105268775901 1140.958501212826 404.20767945631155Q1143.3132011748858 406.33812227912745 1145.7239654217565 407.0669579816698Q1148.1627618110324 407.7957936842121 1150.321236776254 407.7957936842121L1150.321236776254 407.7957936842121Q1152.7880653079355 407.7957936842121 1154.7503152763188 407.1790865512917Q1156.712565244702 406.53434727596584 1158.310397361814 405.6933830038016Q1159.8801973365207 404.8524187316374 1160.917386605523 404.20767945631155Q1161.9545758745257 403.5629401809856 1162.5432508650406 403.5629401809856L1162.5432508650406 403.5629401809856Q1163.3281508523937 403.5629401809856 1163.9168258429086 404.4599687379608L1163.9168258429086 404.4599687379608L1168.1496793461351 411.159650772869Q1168.4580329125956 411.74832576338383 1168.4580329125956 412.1407757570605L1168.4580329125956 412.1407757570605Q1168.4580329125956 412.64535432035905 1168.0655829189186 412.98174002922474Q1167.673132925242 413.31812573809043 1167.364779358782 413.62647930455057L1167.364779358782 413.62647930455057Q1164.3092758365851 415.9811792666104 1159.5718437700602 418.448007798292Q1154.8624438459406 420.9148363299737 1148.779468943953 422.87708629835686Q1142.724526184371 424.86736840914546 1135.436169158948 426.1288148173917Q1128.1478121335244 427.4182933680436 1120.0745551207483 427.4182933680436L1120.0745551207483 427.4182933680436Q1112.674069525703 427.4182933680436 1104.9371982217926 425.9886541053644Q1097.2003269178822 424.5590148426852 1089.9119698924587 421.16712561162296Q1082.6236128670357 417.7752363805606 1076.1481879713715 412.1407757570605Q1069.7007952181125 406.53434727596584 1064.879266724371 398.2088009815402Q1060.0577382306296 389.8832546871146 1057.2264918476767 378.5863012977088Q1054.4232776071294 367.3173800507085 1054.4232776071294 352.4323124334021L1054.4232776071294 352.4323124334021Q1054.4232776071294 337.5472448160957 1057.2264918476767 326.25029142668996Q1060.0577382306296 314.9813701796895 1064.879266724371 306.65582388526394Q1069.7007952181125 298.33027759083836 1076.1481879713715 292.69581696733815Q1082.6236128670357 287.0893884862435 1089.9119698924587 283.69749925518124Q1097.2003269178822 280.27757788171346 1104.9371982217926 278.84793861903427Q1112.674069525703 277.41829935635513 1120.0745551207483 277.41829935635513L1120.0745551207483 277.41829935635513Q1128.1478121335244 277.41829935635513 1135.436169158948 278.7077779070069Q1142.724526184371 279.9972564576587 1148.779468943953 281.95950642604186Q1154.8624438459406 283.92175639442496 1159.5718437700602 286.38858492610666Q1164.3092758365851 288.8554134577883 1167.364779358782 291.2381455622535L1167.364779358782 291.2381455622535Q1167.673132925242 291.5184669863083 1168.0655829189186 291.854852695174Q1168.4580329125956 292.21927054644516 1168.4580329125956 292.69581696733815L1168.4580329125956 292.69581696733815Q1168.4580329125956 293.0882669610148 1168.1496793461351 293.6769419515297L1168.1496793461351 293.6769419515297L1163.9168258429086 300.3766239864379Q1163.3281508523937 301.27365254341305 1162.5432508650406 301.27365254341305L1162.5432508650406 301.27365254341305Q1161.9545758745257 301.27365254341305 1160.917386605523 300.62891326808716Q1159.8801973365207 299.98417399276127 1158.310397361814 299.17124186300254Q1156.712565244702 298.33027759083836 1154.7503152763188 297.6855383155124Q1152.7880653079355 297.0407990401866 1150.321236776254 297.0407990401866L1150.321236776254 297.0407990401866Q1148.1627618110324 297.0407990401866 1145.7239654217565 297.76963474272884Q1143.3132011748858 298.52650258767665 1140.958501212826 300.62891326808716Q1138.603801250766 302.7593560909031 1136.3612298583284 306.543695315642Q1134.146690608296 310.35606668278643 1132.5208263487784 316.49510586958513Q1130.8949620892608 322.6621771987893 1129.9138371050694 331.4923020565134Q1128.932712120878 340.2943947718321 1128.932712120878 352.4323124334021Z " fill="#ec449b" transform="matrix(0.7643885507434438,0,0,0.7643885507434438,-18.15593189042727,30.615496300323315)"/></g></svg>